<svg width="1043" height="723" viewBox="0 0 1043 723" fill="none" xmlns="http://www.w3.org/2000/svg">
<path d="M374.896 621.751C380.38 591.904 390.594 562.891 405.717 536.007C410.001 528.39 414.66 520.956 419.664 513.724C422.028 510.31 416.141 507.156 413.794 510.555C395.862 536.496 382.417 565.11 374.144 594.919C371.833 603.24 369.965 611.643 368.526 620.127C368.249 621.751 368.977 623.41 370.832 623.88C372.419 624.282 374.599 623.381 374.896 621.751Z" fill="#13375B"/>
<path d="M443.011 521.963C447.67 525.936 450.01 531.492 451.979 536.923C454.361 543.489 456.245 550.199 457.755 556.976C460.722 570.321 462.141 583.896 463.024 597.474C463.536 605.35 463.862 613.234 464.188 621.115C464.355 625.202 471.267 625.223 471.095 621.115C469.92 592.701 468.717 563.673 458.987 536.438C456.557 529.632 453.71 522.485 447.665 517.668C446.323 516.594 444.334 516.451 443.011 517.668C441.79 518.795 441.702 520.846 443.011 521.963Z" fill="#13375B"/>
<path d="M453.288 497.839H361.183C354.602 497.839 349.267 502.747 349.267 508.801C349.267 514.854 354.583 520.285 361.163 520.285L468.301 524.177C474.408 524.177 481.218 515.938 482.695 510.488L510.327 408.302C512.024 402.014 507.801 395.662 500.942 394.192C494.256 392.763 487.555 396.506 485.853 402.622L460.881 492.413C459.994 495.605 456.869 497.839 453.288 497.839Z" fill="#13375B"/>
<path d="M422.817 251.505L414.454 251.211L413.667 258.973L405.409 259.047L403.746 266.371L397.577 267.437L398.114 270.559L406.362 269.134L407.944 262.193L416.535 262.117L417.305 254.482L424.889 254.749L422.817 251.505Z" fill="#466EB6"/>
<path d="M321.701 394.119L320.422 398.586L327.386 401.438L326.323 408.207L331.187 411.192L329.672 413.652L323.168 409.659L324.179 403.245L316.932 400.284L318.86 393.558L321.701 394.119Z" fill="#F7CC7F"/>
<path d="M512.321 371.602L505.937 373L501.896 367.7L494.85 369.77L492.286 362.796L484.214 364.79L481.06 358.659L472.983 359.306L473.228 362.364L479.267 361.881L482.593 368.351L490.354 366.434L492.961 373.528L500.736 371.237L504.681 376.414L510.6 375.119L512.479 379.064L515.249 377.741L512.321 371.602Z" fill="#F7CC7F"/>
<path d="M342.691 391.209L346.606 388.65L344.934 386.076L338.607 390.213L342.585 397.274L338.424 402.282L341.018 407.761L337.601 410.478L339.508 412.88L344.833 408.647L342.039 402.737L346.295 397.609L342.691 391.209Z" fill="#F7CC7F"/>
<path d="M253.947 486.264H375.98V446.054H253.947V486.264Z" fill="#86B1F2"/>
<path d="M203.378 600.628H294.649V443.752H203.378V600.628Z" fill="#FAE0B2"/>
<path d="M370.49 620.746H383.393V438.159H370.49V620.746Z" fill="#184655"/>
<path d="M241.277 620.75H250.538V600.24H241.277V620.75Z" fill="#184655"/>
<path d="M189.936 620.74H199.197V600.556H189.936V620.74Z" fill="#184655"/>
<path d="M267.843 434.684C268.062 434.684 268.285 434.66 268.508 434.612C270.413 434.181 271.662 432.023 271.297 429.785C271.297 429.785 256.173 342.469 254.991 342.022C254.614 341.88 253.727 340.09 253.692 340.091C253.51 340.094 253.327 340.121 253.142 340.162C251.237 340.589 249.988 342.75 250.353 344.987L264.399 431.333C264.72 433.308 266.192 434.684 267.843 434.684Z" fill="#355389"/>
<path d="M298.603 348.272L312.594 432.441L269.192 433.044L253.681 340.09L293.158 342.286C296.139 342.421 298.23 345.969 298.603 348.272Z" fill="#466EB6"/>
<path d="M373.439 430.624C373.439 430.672 373.439 430.725 373.439 430.772C373.443 433.456 371.876 435.67 369.926 435.676L314.804 435.815C312.848 435.819 311.266 433.649 311.262 430.965C311.262 430.849 311.266 430.739 311.271 430.624H373.439Z" fill="#355389"/>
<path d="M357.491 430.624C357.491 430.672 357.496 430.72 357.496 430.767C357.501 433.49 355.133 435.705 352.21 435.709L269.643 435.882C266.718 435.887 264.343 433.686 264.338 430.965C264.338 430.849 264.343 430.735 264.352 430.624H357.491Z" fill="#355389"/>
<path d="M340.443 582.971C337.088 589.211 328.887 609.778 328.576 611.336C328.49 611.787 327.325 613.287 326.936 613.569C316.348 614.634 308.598 608.945 302.716 603.341C308.272 603.729 316.761 602.296 317.997 602.085C321.218 601.534 320.873 591.737 322.713 580.727C325.571 582.036 336.283 579.203 340.443 582.971Z" fill="#F7A491"/>
<path d="M328.613 611.202C327.736 614.643 324.088 620.995 323.384 620.812C322.545 620.591 291.284 609.371 288.595 604.889C286.936 602.129 295.482 601.994 302.361 602.349C308.243 607.952 326.805 612.094 328.613 611.202Z" fill="#355389"/>
<path d="M441.445 494.986L368.723 499.176L342.212 590.984L321.141 586.862C321.141 586.862 332.967 491.876 339.854 483.929C358.643 462.249 424.276 464.814 424.276 464.814L441.445 494.986Z" fill="#3C8F7C"/>
<path d="M385.331 587.907C385.062 592.139 384.094 597.263 384.286 602.196C384.416 605.513 385.643 609.543 385.792 610.162C385.897 610.612 385.465 612.458 385.23 612.875C376.047 618.257 366.633 616.316 358.949 613.676C364.165 611.715 367.788 607.808 369.096 606.39C371.311 603.984 369.735 596.775 366.815 585.999C369.959 585.999 379.982 586.22 385.331 587.907Z" fill="#F7A491"/>
<path d="M433.915 458.367C433.915 458.367 366.091 459.641 349.046 484.585C336.296 503.251 368.052 595.312 368.052 595.312L387.157 591.795C387.157 591.795 382.757 529.411 379.574 508.829C379.032 505.34 376.55 495.039 376.55 495.039C376.55 495.039 385.024 497.561 400.775 498.567C422.42 499.948 453.912 499.583 460.713 496.046C472.461 489.939 477.388 473.37 472.217 462.56C467.05 451.752 433.915 458.367 433.915 458.367Z" fill="#50BFA5"/>
<path d="M385.767 610.022C386.96 612.204 387.565 620.664 386.846 620.788C385.992 620.941 350.067 622.955 345.754 620.002C343.094 618.185 352.55 616.225 358.949 613.676C366.638 616.316 385.383 612.362 385.767 610.022Z" fill="#355389"/>
<path d="M381.819 413.21C381.819 413.21 362.066 418.152 352.191 421.292C342.312 424.436 329.745 425.332 329.745 425.332L319.124 430.945L341.867 431.616L394.837 426.904L399.323 414.557L381.819 413.21Z" fill="#F48C7F"/>
<path d="M396.628 373.259L387.205 374.607C387.205 374.607 383.835 375.282 381.141 390.093C378.448 404.909 374.632 412.765 374.632 412.765L397.749 421.967C414.646 398.634 426.231 370.988 396.628 373.259Z" fill="#B75742"/>
<path d="M396.063 359.829C390.037 360.879 389.673 365.744 389.673 365.744L383.504 391.44C383.504 391.44 382.939 402.325 384.19 406.491C386.62 414.596 391.533 417.793 399.58 420.545C410.25 424.196 414.469 433.395 419.07 438.763C427.056 448.076 420.556 459.22 420.556 459.22L476.358 467.053C476.358 467.053 477.115 456.162 464.475 425.558C453.499 398.985 427.189 354.379 396.063 359.829Z" fill="#F47458"/>
<path d="M415.93 362.936C409.085 355.415 391.691 364.733 397.079 389.647C397.112 389.806 399.082 415.967 397.419 419.289C396.412 421.311 372.173 420.3 357.501 423.387C357.501 423.387 341.636 417.501 336.066 417.103C331.94 416.81 322.113 419.945 322.113 419.945C322.113 419.945 309.455 429.287 311.228 430.83C313.648 432.944 319.606 423.722 324.62 423.722C324.62 423.722 315.479 430.788 318.298 430.945C321.116 431.099 325.014 428.99 327.05 428.362C329.087 427.734 336.589 431.506 343.213 432.292C344.306 432.422 348.629 432.187 353.648 432.853C358.738 433.529 364.494 435.379 371.229 435.695C389.347 436.539 409.853 438.537 414.928 433.429C418.71 429.623 427.448 375.584 415.93 362.936Z" fill="#F7A491"/>
<path d="M418.993 418.013C407.931 416.58 396.835 412.391 396.835 412.391C396.835 412.391 395.924 390.471 395.842 389.647C395.133 378.196 395.565 368.988 400.358 363.045C402.768 360.059 405.347 359.345 408.415 359.345C411.286 359.345 415.283 360.471 417.392 363.16C425.11 373.01 422.157 401.683 419.746 417.448L419.646 418.094L418.993 418.013Z" fill="#B75742"/>
<path d="M391.055 317.443C391.902 310.061 391.893 282.005 408.942 282.584C425.997 283.162 426.097 301.929 439.906 279.315C452.699 258.367 476.329 271.905 474.134 289.242C476.574 289.493 478.966 290.309 481.123 291.742C488.576 296.697 490.379 307.103 485.139 314.983C484.311 316.237 484.378 317.648 483.323 318.615C483.85 326.446 480.888 334.725 473.482 342.297C453.25 362.978 442.198 335.065 431.302 334.372C420.408 333.678 425.767 343.315 415.313 348.057C404.863 352.801 397.765 349.691 386.127 329.13L383.347 323.544C383.347 323.544 390.201 324.826 391.055 317.443Z" fill="#B75742"/>
<path d="M381.218 312.361C393.216 320.733 395.866 342.053 384.823 352.233C377.648 358.852 363.507 360.002 355.657 353.44C342.926 342.795 341.507 330.746 346.017 321.289C351.846 309.085 371.321 305.454 381.218 312.361Z" fill="#B75742"/>
<path d="M384.967 341.246C384.967 341.246 388.662 352.726 401.68 359.345C403.282 360.159 383.519 391.948 383.509 391.569C383.452 389.115 386.927 374.798 386.078 373.034C383.769 368.218 370.347 346.26 370.347 346.26L384.967 341.246Z" fill="#F7A491"/>
<path d="M377.499 343.808L370.347 346.26C370.362 346.282 376.248 355.908 380.887 363.808C382.537 362.455 383.994 360.501 385.159 357.815C387.023 353.522 387.301 349.052 386.587 344.805C385.427 342.671 384.967 341.247 384.967 341.246L377.499 343.808Z" fill="#F47458"/>
<path d="M358.335 319.709C358.335 319.709 364.739 317.001 371.704 319.609C378.668 322.218 391.183 339.151 384.732 354.005C378.285 368.86 362.865 361.478 356.021 352.056C349.181 342.635 342.365 328.43 358.335 319.709Z" fill="#F7A491"/>
<path d="M386.083 328.121C380.567 318.538 374.508 312.917 366 315.099C357.492 317.279 349.862 318.737 349.287 328.723L348.673 330.428C348.673 330.428 360.996 324.41 366.105 329.119C371.215 333.829 381.918 335.367 383.341 338.634C384.765 341.9 388.283 347.813 388.283 347.813L388.921 344.142C388.921 344.142 391.6 337.705 386.083 328.121Z" fill="#B75742"/>
<path d="M373.089 333.991C374.239 336.964 376.842 338.68 378.902 337.825C380.96 336.969 381.697 333.866 380.546 330.893C379.392 327.92 376.789 326.203 374.733 327.059C372.671 327.915 371.938 331.018 373.089 333.991Z" fill="#F7A491"/>
<path d="M153.291 600.628H301.714V443.752H153.291V600.628Z" fill="#86B1F2"/>
<path d="M299.648 620.822H311.909V440.272H299.648V620.822Z" fill="#184655"/>
<path d="M150.052 622.183H156.979V441.633H150.052V622.183Z" fill="#184655"/>
<path d="M125.896 446.791H393.206C395.823 446.791 397.941 444.673 397.941 442.056V440.421C397.941 437.805 395.823 435.681 393.206 435.681H125.895C123.278 435.681 121.157 437.805 121.157 440.421V442.056C121.157 444.673 123.278 446.791 125.896 446.791Z" fill="#184655"/>
<path d="M997.446 623.391C997.446 621.551 996.535 620.055 995.41 620.055H83.0306C81.6704 620.055 80.5673 621.551 80.5673 623.391C80.5673 625.237 81.6704 626.732 83.0306 626.732H995.41C996.535 626.732 997.446 625.237 997.446 623.391Z" fill="#86B1F2"/>
<path d="M661.049 88.7043H789.515C801.762 88.7043 811.693 78.7761 811.693 66.5275V22.1759C811.693 9.92822 801.762 0 789.515 0H661.049C648.797 0 638.871 9.92822 638.871 22.1759V66.5275C638.871 78.7761 648.797 88.7043 661.049 88.7043Z" fill="#F7A491"/>
<path d="M765.606 77.9386L768.865 140.787L724.515 76.4689L765.606 77.9386Z" fill="#F7A491"/>
<path d="M592.4 271.223L595.251 258.252C595.251 258.252 604.584 264.173 610.024 272.633C615.469 281.091 618.062 303.648 619.615 304.494C621.173 305.339 638.395 278.804 641.405 274.621C645.129 269.448 646.524 263.511 648.854 258.999C651.188 254.488 659.399 252.951 662.51 253.516C665.621 254.08 658.239 267.276 658.239 267.276C658.239 267.276 639.574 299.701 633.353 317.464C627.132 335.227 607.695 343.687 604.584 341.148C601.474 338.611 592.4 271.223 592.4 271.223Z" fill="#F48C7F"/>
<path d="M649.061 261.482C649.061 261.482 649.837 258.068 651.931 257.37C654.026 256.671 657.674 257.293 657.909 257.37C658.139 257.447 662.175 255.274 662.175 255.274L658.839 261.482C658.839 261.482 652.32 269.164 650.149 266.293C647.977 263.422 649.061 261.482 649.061 261.482Z" fill="#F7A491"/>
<path d="M663.34 255.559C663.34 255.559 665.694 267.534 665.099 270.044C664.499 272.561 662.999 271.211 662.722 270.665C661.561 268.413 660.752 260.731 660.752 260.731L663.34 255.559Z" fill="#F48C7F"/>
<path d="M658.269 265.517C658.269 265.517 659.391 272.943 660.546 273.82C661.298 274.389 662.252 274.052 662.564 272.552C662.875 271.051 661.063 261.896 661.063 261.896L658.269 265.517Z" fill="#F48C7F"/>
<path d="M651.409 286.592L647.503 284.688L664.097 250.65C666.254 251.702 667.15 254.303 666.096 256.46L651.409 286.592Z" fill="#184655"/>
<path d="M609.717 217.887C612.062 207.243 614.352 196.532 608.179 184.837C603.184 175.374 594.548 169.929 584.554 168.743C556.231 165.382 562.285 191.821 522.702 197.545C510.403 199.322 498.976 201.032 488.709 207.149C470.165 218.194 463.166 235.912 475.465 264.777C505.576 335.456 579.487 275.455 588.613 261.537C595.406 251.183 608.213 224.74 609.717 217.887Z" fill="#13375B"/>
<path d="M496.461 664.354C496.461 664.354 494.444 684.83 489.262 688.588C484.076 692.346 477.164 706.256 480.619 713.776C481.698 716.125 483.86 717.486 486.318 718.243C493.604 720.486 501.35 716.709 504.451 709.745C506.187 705.858 507.706 700.672 508.008 694.134C508.789 677.496 513.971 669.037 513.971 669.037L496.461 664.354Z" fill="#F7A491"/>
<path d="M576.123 672.731C576.123 672.731 577.758 693.395 576.43 700.11C575.72 703.706 571.766 711.106 573.583 714.49C575.395 717.874 577.47 718.718 577.47 718.718L624.496 719.475C627.055 719.514 625.364 717.869 623.297 716.355C619.918 713.872 617.186 712.232 606.387 707.022C605.687 706.682 603.118 705.052 602.197 704.492C599.85 703.058 597.496 700.81 595.468 698.558C592.094 694.809 591.796 676.615 591.796 676.615L576.123 672.731Z" fill="#F7A491"/>
<path d="M612.878 398.102C612.878 398.102 618.802 431.649 614.91 453.641C611.023 475.632 592.363 679.481 592.363 679.481L571.623 680.65C571.623 680.65 567.275 595.494 568.052 583.655C568.833 571.812 574.987 551.997 574.987 551.997L572.922 483.248L599.093 392.925L612.878 398.102Z" fill="#3C8F7C"/>
<path d="M551.926 391.052C551.926 391.052 535.596 415.579 531.709 435.878C527.821 456.182 534.561 518.564 527.083 545.166C523.032 559.57 507.69 581.806 505.356 600.418C503.021 619.025 493.871 667.766 493.871 667.766L514.601 671.87L562.777 550.132L600.567 440.105L610.245 383.436L551.926 391.052Z" fill="#50BFA5"/>
<path d="M565.146 251.487C565.146 251.487 550.844 253.11 542.293 262.414C533.736 271.717 556.115 346.509 557.673 358.352C559.227 370.192 544.928 397.815 544.928 397.815C544.928 397.815 598.363 407.695 612.877 398.103C612.877 398.103 614.435 312.952 612.877 304.495C611.324 296.035 598.363 261.636 595.252 258.252C592.141 254.869 565.146 251.487 565.146 251.487Z" fill="#FAE0B2"/>
<path d="M544.925 269.435C546.306 265.267 551.027 263.26 555.058 265.002C560.579 267.389 568.2 271.92 571.925 279.681C578.142 292.651 599.917 337.201 606.656 338.893C613.396 340.585 640.875 292.651 640.875 292.651C640.875 292.651 640.094 284.193 642.428 279.4C644.762 274.606 651.76 269.53 652.795 271.223C653.836 272.914 648.908 277.144 648.908 277.99C648.908 278.836 650.983 279.4 653.836 277.707C656.688 276.016 658.23 272.594 658.23 272.594C658.23 272.594 662.904 281.091 657.981 288.704C653.055 296.317 650.983 299.419 650.983 299.419C650.983 299.419 619.099 370.192 607.433 371.035C596.572 371.826 534.007 302.434 544.925 269.435Z" fill="#F7A491"/>
<path d="M572.341 222.654C572.341 222.654 572.23 223.289 572.03 224.371C571.067 229.558 567.357 246.767 564.845 251.498C561.815 257.216 575.221 275.45 588.124 273.225C591.964 272.563 584.88 256.47 585.22 254.765C585.872 251.503 586.754 247.051 587.66 242.486C588.168 239.912 588.686 237.302 589.17 234.848C590.55 227.876 591.677 222.172 591.677 222.172L572.341 222.654Z" fill="#F7A491"/>
<path d="M572.03 224.371C572.231 223.289 572.341 222.654 572.341 222.654L591.677 222.172C591.677 222.172 590.55 227.876 589.17 234.848C588.691 237.288 588.178 239.883 587.67 242.445C584.684 242.005 581.563 240.558 578.439 237.825C575.025 234.847 572.792 231.268 571.445 227.446C571.68 226.227 571.881 225.175 572.03 224.371Z" fill="#F47458"/>
<path d="M583.975 176.7C583.975 176.7 576.091 177.794 570.377 185.167C564.663 192.541 558.509 215.344 572.698 227.741C586.89 240.138 600.909 226.105 602.99 211.226C605.07 196.347 604.648 176.164 583.975 176.7Z" fill="#F7A491"/>
<path d="M607.528 206.142C605.836 209.428 602.994 211.248 601.177 210.206C599.366 209.165 599.269 205.657 600.961 202.37C602.659 199.084 605.501 197.264 607.313 198.307C609.129 199.348 609.225 202.855 607.528 206.142Z" fill="#F7A491"/>
<path d="M586.376 176.355C586.376 176.355 574.201 198.039 565.492 199.042C556.783 200.044 555.637 211.566 555.637 211.566C555.637 211.566 558.753 185.015 567.375 179.895C575.999 174.775 586.376 176.355 586.376 176.355Z" fill="#13375B"/>
<path d="M568.339 204.208C569.048 208.059 567.624 211.59 565.156 212.096C562.693 212.601 560.119 209.89 559.41 206.039C558.7 202.188 560.128 198.657 562.592 198.15C565.056 197.646 567.629 200.358 568.339 204.208Z" fill="#F7A491"/>
<path d="M505.864 706.083C494.567 708.139 487.051 701.544 483.14 696.607C480.263 702.201 478.505 709.185 480.618 713.776C482.479 717.821 487.545 718.928 491.825 719.086C496.35 719.255 500.583 716.892 502.825 712.957C503.874 711.12 504.958 708.834 505.864 706.083Z" fill="#3C8F7C"/>
<path d="M602.189 704.487C589.755 707.669 580.562 705.503 575.418 703.437C574.09 707.185 572.332 711.892 573.266 714.604C574.407 717.927 576.032 718.679 577.47 718.718C588.83 719.015 619.079 719.422 627.74 719.532C628.949 719.551 629.62 718.137 628.838 717.213C626.691 714.653 603.118 705.052 602.189 704.487Z" fill="#3C8F7C"/>
<path d="M88.6061 221.588C108.294 193.838 152.121 206.674 153.399 240.674C153.414 241.072 153.426 241.473 153.435 241.875C154.309 282.08 123.719 292.567 133.332 321.41C142.947 350.251 172.158 328.742 183.52 375.938C194.882 423.132 156.058 449.298 159.555 477.266C163.05 505.234 179.658 523.875 178.782 560.298C178.132 587.385 128.965 671.294 128.965 671.294C128.965 671.294 63.415 599.626 61.6667 551.556C60.0086 505.963 92.6332 510.234 94.3815 467.407C96.1286 424.58 32.3066 418.866 63.4129 365.111C69.9691 353.78 86.8071 342.728 86.8071 318.258C86.8071 293.789 64.6678 256.503 82.1459 230.868C84.2679 227.756 86.4354 224.648 88.6061 221.588Z" fill="#50BFA5"/>
<path d="M159.556 477.267C156.059 449.298 194.882 423.133 183.521 375.939C172.159 328.742 142.948 350.252 133.333 321.41C123.72 292.567 154.31 282.08 153.436 241.875C153.427 241.473 153.415 241.073 153.4 240.675C152.615 219.796 135.785 206.898 118.353 206.478L118.269 207.564C118.269 207.564 93.7999 306.608 110.112 356.714C126.426 406.817 139.243 410.311 131.087 477.895C122.93 545.478 128.966 671.294 128.966 671.294C128.966 671.294 178.133 587.385 178.783 560.299C179.659 523.876 163.051 505.235 159.556 477.267Z" fill="#3C8F7C"/>
<path d="M170.583 703.557H64.1007C50.5395 690.774 42.2765 673.168 42.5782 653.857C42.7301 644.108 44.6759 635.605 48.7335 627.255L186.021 628.846C189.815 637.33 191.851 646.643 191.698 656.397C191.412 674.798 183.405 691.383 170.583 703.557Z" fill="#F47458"/>
<path d="M684.665 129.615H581.026C571.148 129.615 563.138 121.606 563.138 111.725V75.9453C563.138 66.0648 571.148 58.0551 581.026 58.0551H684.665C694.548 58.0551 702.557 66.0648 702.557 75.9453V111.725C702.557 121.606 694.548 129.615 684.665 129.615Z" fill="#FAE0B2"/>
<path d="M607.557 119.745L593.982 160.46L633.464 119.745H607.557Z" fill="#FAE0B2"/>
<path d="M604.062 96.559C604.062 100.159 600.937 103.078 597.078 103.078C593.22 103.078 590.095 100.159 590.095 96.559C590.095 92.9603 593.22 90.0421 597.078 90.0421C600.937 90.0421 604.062 92.9603 604.062 96.559Z" fill="white"/>
<path d="M639.756 96.559C639.756 100.159 636.626 103.078 632.773 103.078C628.914 103.078 625.79 100.159 625.79 96.559C625.79 92.9603 628.914 90.0421 632.773 90.0421C636.626 90.0421 639.756 92.9603 639.756 96.559Z" fill="white"/>
<path d="M675.448 96.559C675.448 100.159 672.322 103.078 668.464 103.078C664.61 103.078 661.486 100.159 661.486 96.559C661.486 92.9603 664.61 90.0421 668.464 90.0421C672.322 90.0421 675.448 92.9603 675.448 96.559Z" fill="white"/>
<path d="M156.999 489.311C156.999 489.311 214.932 471.926 217.267 472.358C219.559 472.785 210.458 492.106 211.595 498.351C211.96 500.35 162.01 528.918 150.908 526.809C138.805 524.513 92.2746 484.49 87.3125 475.814C81.7659 466.112 72.0557 441.917 78.5238 432.809C81.4712 428.654 88.6131 423.127 93.569 424.297C113.279 428.946 134.561 463.855 156.999 489.311Z" fill="#355389"/>
<path d="M160.181 555.73C159.801 554.004 147.78 526.051 147.168 523.199C139.184 485.937 108.449 431.449 94.2196 424.436C91.9173 423.285 75.4894 423.18 75.4894 423.18L83.9805 427.379C93.6544 436.218 104.48 446.436 111.386 457.839C131.411 490.913 145.051 567.1 146.873 566.966C148.911 566.817 161.025 559.546 160.181 555.73Z" fill="#466EB6"/>
<path d="M141.159 556.766C113.029 540.402 108.605 501.774 96.7127 481.034C82.1497 455.63 60.6738 452.859 23.706 498.907C-21.6131 555.357 1.446 668.921 64.0244 705.315L214.086 704.989C245.004 693.861 258.742 677.539 269.849 650.353C319.238 529.444 203.738 593.156 141.159 556.766Z" fill="#F7CC7F"/>
<path d="M207.716 682.169C207.716 682.169 206.67 700.661 206.664 700.7C206.279 703.044 204.764 708.848 204.764 710.981C204.764 719 240.438 704.175 232.444 700.624C231.719 700.298 226.804 696.051 226.566 693.324C226.199 689.12 226.394 682.429 226.394 682.429L207.716 682.169Z" fill="#F7A491"/>
<path d="M231.927 700.273C231.927 700.273 223.551 702.722 219.262 703.336C214.971 703.95 209.317 698.787 206.282 700.182C203.803 701.323 202.837 709.586 202.504 713.771C202.398 715.099 203.407 716.249 204.736 716.321C214.601 716.834 252.11 718.564 261.844 715.746C266.893 714.284 249.049 705.982 231.927 700.273Z" fill="#07345A"/>
<path d="M307.965 663.629C307.965 663.629 299.586 666.078 295.297 666.692C291.011 667.306 285.353 662.143 282.319 663.538C279.841 664.679 278.874 672.943 278.541 677.127C278.436 678.455 279.599 679.955 280.924 680.09C291.869 681.167 328.149 681.92 337.884 679.102C342.931 677.64 325.085 669.338 307.965 663.629Z" fill="#07345A"/>
<path d="M272.813 648.641C272.813 648.641 282.844 662.752 283.783 665.868C284.722 668.983 307.969 671.264 307.969 663.634C307.969 663.534 300.759 657.672 298.723 654.997C295.319 650.53 287.377 635.604 287.377 635.604L272.813 648.641Z" fill="#F7A491"/>
<path d="M56.7937 341.271C56.7937 341.271 45.4709 333.616 40.6851 347.027C40.6851 347.027 34.2897 345.09 31.5531 351.661C31.5531 351.661 20.5877 350.838 21.4861 366.76C21.4861 366.76 15.9751 366.932 16.6659 373.374C17.3555 379.821 21.4759 383.306 21.4759 383.306C21.4759 383.306 18.9955 386.192 21.6228 391.675C23.8571 396.339 28.09 396.19 28.09 396.19C28.09 396.19 31.0183 404.233 35.1639 405.935C39.3086 407.636 43.9353 405.36 43.9353 405.36C43.9353 405.36 46.2254 409.563 50.3296 408.24C54.4348 406.912 58.7436 401.774 63.8322 402.536C68.9209 403.293 80.6813 398.711 80.6813 398.711C80.6813 398.711 93.0131 389.599 85.8339 376.528C85.8339 376.528 91.5879 368.453 83.5791 362.053C83.5791 362.053 85.4813 348.86 74.8097 343.679C64.1381 338.497 56.7937 341.271 56.7937 341.271Z" fill="#07345A"/>
<path d="M236.288 541.15C226.875 536.515 128.116 551.896 128.116 551.896L116.275 533.026L77.7251 541.768C77.7251 541.768 66.8154 554.331 66.3637 559.958C64.9032 578.158 73.2472 608.771 82.6557 611.748C116.17 622.346 188.22 600.686 198.307 598.37C198.307 598.37 197.94 614.696 200.997 648.018C202.204 661.19 203.786 675.703 205.252 688.396C214.072 688.377 222.892 688.214 231.712 687.049C231.712 687.049 245.701 545.78 236.288 541.15Z" fill="#F47458"/>
<path d="M298.886 646.648C281.994 603.974 245.329 520.232 232.043 517.874C214.626 514.787 128.101 551.93 128.101 551.93L215.887 550.099C215.887 550.099 216.37 550.966 220.192 569.368C223.171 583.708 256.194 634.214 275.023 662.192C283.708 658.266 292.309 654.637 298.886 646.648Z" fill="#B75742"/>
<path d="M75.9082 423.497C75.9082 423.497 54.0483 423.248 51.7258 423.76C49.4032 424.273 53.5611 512.971 56.4043 546.067C59.2473 579.164 63.8043 584.13 63.8043 584.13C63.8043 584.13 94.9785 584.255 116.52 577.453C138.921 570.383 144.244 544.361 144.244 544.361C144.244 544.361 123.954 484.859 115.82 466.419C110.618 454.623 100.224 441.347 89.6983 430.537C83.7679 424.446 75.9082 423.497 75.9082 423.497Z" fill="white"/>
<path d="M69.7599 407.358L74.1476 419.322C74.1476 419.322 81.7949 436.27 77.7605 440.752C73.7263 445.238 52.5927 423.549 52.5927 423.549L47.3359 391.934L69.7599 407.358Z" fill="#F7A491"/>
<path d="M49.0416 402.181C55.3538 411.964 66.227 416.436 73.4801 417.501L69.7599 407.354L47.3359 391.934L49.0416 402.181Z" fill="#F47458"/>
<path d="M51.1577 356.651C60.1408 351.159 71.9328 355.329 75.6296 365.025C77.2371 369.237 79.0299 374.587 80.4621 380.554C83.9049 394.901 79.5435 410.57 73.0023 412.012C66.4602 413.459 46.3213 408.125 41.1505 387.822C37.958 375.282 41.7289 362.417 51.1577 356.651Z" fill="#F7A491"/>
<path d="M46.328 388.372C47.0288 391.55 45.4913 394.588 42.8933 395.164C40.2943 395.739 37.6193 393.625 36.9163 390.448C36.2154 387.269 37.753 384.231 40.351 383.655C42.95 383.08 45.625 385.194 46.328 388.372Z" fill="#F7A491"/>
<path d="M52.5506 423.458C52.5506 423.458 27.1701 422.447 21.3947 427.787C17.722 431.18 25.1615 465.14 25.1615 465.14C25.1615 465.14 45.8646 504.77 48.8749 527.949C53.8745 566.453 58.4344 590.107 60.4075 591.383C71.8144 595.476 109.522 587.687 111.09 583.234C128.399 534.037 52.5506 423.458 52.5506 423.458Z" fill="#466EB6"/>
<path d="M175.292 505.005L192.143 433.86C192.578 432.014 194.223 430.715 196.116 430.715H226.71C229.391 430.715 231.346 433.256 230.657 435.849L212.076 505.858C211.616 507.589 210.079 508.821 208.289 508.892L179.427 510.023C176.727 510.133 174.67 507.631 175.292 505.005Z" fill="#184655"/>
<path d="M203.21 503.164C201.915 503.414 199.775 503.883 198.293 504.425C196.693 505.009 195.038 505.047 193.619 505.34C190.801 505.92 188.755 506.38 188.795 506.256C188.848 506.093 188.213 505.824 189.684 505.263C191.452 504.593 195.516 503.974 198.041 502.79C199.472 502.119 202.547 500.897 202.547 500.897C202.547 500.897 206.859 498.203 206.787 497.906C206.398 496.305 202.938 497.34 201.109 498.5C199.57 498.658 196.369 500.034 196.369 500.034C196.369 500.034 189.284 501.414 189.087 500.442C189.004 500.03 193.256 498.677 197.223 496.717C200.906 494.895 204.334 492.475 204.09 491.718C203.675 490.429 199.372 492.03 199.372 492.03C199.372 492.03 196.416 493.304 195.402 493.66C194.214 494.072 190.565 495.039 190.565 495.039C190.565 495.039 177.713 497.839 177.607 496.899C177.502 495.965 178.219 493.434 178.96 492.993C179.698 492.552 181.476 492.427 182.217 491.986C182.955 491.545 183.546 490.357 183.076 489.436C182.607 488.516 178.22 489.331 178.22 489.331C178.22 489.331 174.657 490.016 172.738 491.627C166.089 497.206 167.281 498.049 166.409 498.744C165.379 499.565 147.831 501.486 147.831 501.486C147.831 501.486 96.1451 507.487 93.3444 507.717L95.1585 524.925C98.2376 525.236 157.886 514.845 164.007 513.622C164.007 513.622 171.811 514.787 176.738 515.362C181.665 515.933 186.641 514.332 188.058 514.284C188.267 514.275 192.98 513.852 198.669 511.82C203.571 510.071 198.141 509.554 198.141 509.554C198.141 509.554 188.492 511.217 188.503 510.454C188.512 509.865 193.831 509.261 199.275 507.377C200.674 506.893 202.055 506.414 203.319 505.959C206.636 504.77 206.875 502.459 203.21 503.164Z" fill="#F8A492"/>
<path d="M85.6159 499.291C85.6159 499.291 145.904 498.86 148.239 499.291C150.531 499.718 151.176 515.185 152.313 521.431C152.677 523.434 88.765 530.591 77.6639 528.481C65.5601 526.185 35.0787 492.701 28.0159 481.398C22.0907 471.923 9.44901 447.798 12.593 437.239C14.4932 430.864 24.3564 423.659 29.7419 425.327C51.2229 431.985 85.6159 499.291 85.6159 499.291Z" fill="#86B1F2"/>
<path d="M222.205 470.902C223.363 470.451 224.669 471.141 224.906 472.363C225.148 473.609 225.156 475.11 224.2 476.063C222.304 477.956 209.505 479.38 209.505 477.487C209.505 476.025 218.187 472.469 222.205 470.902Z" fill="#F7A491"/>
<path d="M225.022 476.461C225.022 476.461 226.494 481.178 225.391 481.264C224.289 481.35 210.569 483.271 209.891 481.662C209.212 480.051 223.21 475.57 225.022 476.461Z" fill="#F7A491"/>
<path d="M225.586 481.758C225.586 481.758 226.114 483.847 225.055 485.147C223.995 486.445 211.133 486.475 210.533 484.471C209.935 482.463 225.033 480.224 225.586 481.758Z" fill="#F7A491"/>
<path d="M222.649 486.574C222.649 486.574 222.916 488.171 222.384 488.957C221.851 489.743 212.333 490.251 211.092 488.395C209.849 486.541 221.237 484.672 222.649 486.574Z" fill="#F7A491"/>
<path d="M931.245 260.582C944.382 259.84 951.857 275.637 942.974 285.427C941.384 287.186 940.523 289.488 940.462 291.861L940.269 300.027C940.219 302.278 938.446 304.11 936.198 304.236L931.224 304.517C928.976 304.644 927.011 303.023 926.707 300.793C925.583 292.654 925.765 289.573 922.372 286.589C912.456 277.86 918.098 261.323 931.245 260.582Z" fill="#F7CC7F"/>
<path d="M924.621 272.709C923.892 273.079 923.821 274.221 924.266 274.918C924.894 275.914 926.272 276.384 927.437 276.742C927.224 275.385 927.123 274.189 926.525 273.369C926.1 272.794 924.692 272.668 924.621 272.709ZM937.089 274.041C936.451 274.963 936.279 276.099 936.269 277.323C937.859 277.043 938.872 276.496 939.368 275.656C940.189 274.247 938.517 271.962 937.089 274.041ZM936.785 294.76C936.127 288.161 935.661 280.873 935.57 278.142C933.139 278.448 930.678 278.301 928.297 277.716C929.118 283.156 929.797 288.666 930.323 294.125L929.624 294.193C929.077 288.644 928.389 283.043 927.558 277.516C926.12 277.103 924.449 276.539 923.669 275.298C923.294 274.716 923.183 273.941 923.365 273.273C923.851 271.495 926.019 271.478 927.092 272.951C927.811 273.926 927.923 275.242 928.186 276.956C930.587 277.587 933.099 277.75 935.56 277.429C935.56 276.044 935.742 274.74 936.502 273.639C939.166 269.778 943.632 276.82 936.269 278.04C936.34 280.177 936.785 287.661 937.494 294.69L936.785 294.76Z" fill="white"/>
<path d="M940.483 291.656C940.473 291.725 940.473 291.792 940.463 291.861L940.271 300.027C940.22 302.277 938.447 304.11 936.199 304.236L931.226 304.517C928.977 304.643 927.012 303.022 926.708 300.792C926.212 297.171 925.969 294.554 925.554 292.499L940.483 291.656Z" fill="#3C8F7C"/>
<path d="M939.347 252.707L941.596 244.944C941.809 244.192 941.383 243.407 940.624 243.189C939.874 242.972 939.094 243.404 938.871 244.157L936.623 251.92C936.41 252.671 936.846 253.457 937.595 253.675C938.355 253.892 939.135 253.455 939.347 252.707Z" fill="#FAE0B2"/>
<path d="M951.371 267.595L959.463 265.03C960.213 264.794 960.628 263.998 960.395 263.253C960.152 262.507 959.352 262.094 958.613 262.33L950.51 264.894C949.76 265.13 949.355 265.927 949.588 266.672C949.821 267.418 950.621 267.831 951.371 267.595Z" fill="#FAE0B2"/>
<path d="M965.206 291.096C965.622 290.434 965.429 289.56 964.761 289.145C962.279 287.591 959.636 286.267 956.911 285.211C956.182 284.928 955.361 285.29 955.078 286.019C954.794 286.749 955.159 287.57 955.888 287.852C958.451 288.844 960.932 290.086 963.252 291.544C963.91 291.957 964.791 291.763 965.206 291.096Z" fill="#FAE0B2"/>
<path d="M918.857 256.886C919.546 256.524 919.819 255.669 919.455 254.975C917.733 251.681 916.355 248.198 915.353 244.621C915.14 243.868 914.36 243.427 913.61 243.639C912.861 243.851 912.415 244.632 912.628 245.385C913.681 249.15 915.13 252.818 916.943 256.286C917.307 256.983 918.158 257.246 918.857 256.886Z" fill="#FAE0B2"/>
<path d="M912.709 269.404C912.77 268.624 912.183 267.945 911.403 267.887L902.236 267.214C901.456 267.158 900.778 267.744 900.717 268.523C900.666 269.303 901.254 269.982 902.034 270.04L911.2 270.713C911.98 270.769 912.659 270.185 912.709 269.404Z" fill="#FAE0B2"/>
<path d="M903.705 295.405C903.827 295.378 903.948 295.332 904.07 295.269C906.855 293.769 909.489 291.964 911.9 289.904C912.497 289.396 912.558 288.5 912.051 287.907C911.545 287.312 910.644 287.243 910.056 287.752C907.797 289.679 905.336 291.371 902.723 292.775C902.034 293.145 901.781 294.004 902.145 294.693C902.459 295.264 903.098 295.54 903.705 295.405Z" fill="#FAE0B2"/>
<path d="M1022.17 463.802C990.721 423.42 971.943 425.457 958.806 447.147C948.079 464.862 943.552 498.146 918.736 511.801C863.535 542.185 791.308 531.611 820.204 617.759C828.277 641.836 840.715 639.937 846.478 640.11L986.893 639.966C1042.09 609.587 1060.73 513.301 1022.17 463.802Z" fill="#F7CC7F"/>
<path d="M992.636 388.761C995.867 372.962 988.432 357.303 974.222 351.421C974.323 342.432 970.778 333.413 964.66 327.259C952.587 315.119 927.711 309.868 918.838 325.345C907.109 331.999 907.848 340.26 911.353 353.387C899.988 365.193 904.131 384.524 920.701 394.608C920.448 407.856 920.104 427.83 931.651 433.49C934.416 434.851 938.751 436.745 939.308 437.335C938.579 436.649 947.856 462.556 976.673 450.698C1006.08 438.6 1011.8 404.539 992.636 388.761Z" fill="#355389"/>
<path d="M870.452 495.365C872.772 493.084 876.833 491.057 876.6 490.721C875.638 489.36 865.57 499.77 866.229 496.837C866.593 495.207 873.805 486.704 876.357 486.388C878.839 486.076 894.893 483.545 894.893 483.545L931.974 458.895C931.974 458.895 933.818 429.732 925.948 410.095C934.547 407.468 936.228 406.907 945.081 407.588C950.125 427.513 955.554 461.076 948.99 470.858C946.235 474.97 898.023 490.883 898.023 490.883C898.023 490.883 887.6 494.809 885.656 494.929C884.177 495.025 880.125 494.685 878.14 494.991C873.633 495.691 868.052 502.392 867.667 501.621C867.393 501.06 868.092 497.7 870.452 495.365Z" fill="#F48C7F"/>
<path d="M921.43 407.761C924.915 401.318 928.5 396.204 928.5 396.204C932.116 389.757 941.455 386.498 941.455 386.498C941.455 386.498 944.574 386.566 948.16 386.743C948.383 387.337 948.606 387.764 948.839 387.936C950.186 388.948 957.904 387.639 962.897 391.038C979.61 405.416 974.991 475.105 973.664 497.115L931.934 497.297C931.934 497.297 929.179 450.238 918.837 438.072C911.626 429.599 916.265 417.319 921.43 407.761Z" fill="#F47458"/>
<path d="M909.995 652.946C909.549 652.121 903.745 638.129 899.005 631.898C892.118 622.854 832.631 540.924 835.083 520.985C836.146 512.276 861.924 504.894 864.993 504.366C881.391 506.571 864.162 520.692 876.479 532.301C868.467 535.043 863.747 538.466 865.479 540.718C872.417 549.739 909.235 622.428 910.835 623.362C917.976 627.547 920.762 625.605 920.762 625.605C920.762 625.605 919.131 666.491 915.728 665.201C912.324 663.912 915.039 662.24 909.995 652.946Z" fill="#F79C8D"/>
<path d="M923.781 625.865L916.903 667.057C915.354 672.387 912.751 672.324 912.082 671.615C910.715 670.143 910.087 659.143 909.925 652.893C913.024 643.35 912.73 625.39 910.816 623.362C915.496 623.448 923.771 624.949 923.781 625.865Z" fill="#B75742"/>
<path d="M899.188 524.944C889.951 509.634 890.447 511.576 874.383 504.659C867.941 507.243 846.397 520.745 843.662 523.242L877.928 548.095C876.814 545.315 888.745 531.516 899.188 524.944Z" fill="#F7A491"/>
<path d="M944.382 362.925C944.382 362.925 947.178 382.975 949.133 387.85C951.087 392.725 938.386 403.145 927.822 406.308C917.247 409.472 931.053 395.543 930.607 390.332C930.171 385.127 928.257 360.462 928.257 360.462L944.382 362.925Z" fill="#F7A491"/>
<path d="M928.783 367.537C928.48 363.453 928.257 360.462 928.257 360.462L944.382 362.925C944.382 362.925 944.787 365.279 945.242 368.609C938.699 372.416 932.825 371.217 928.783 367.537Z" fill="#F47458"/>
<path d="M939.328 326.296C939.328 326.296 945.679 327.733 949.609 333.745C953.529 339.755 956.223 357.452 943.299 365.711C930.364 373.969 920.306 362.288 920.144 350.89C919.982 339.494 922.413 324.286 939.328 326.296Z" fill="#F7A491"/>
<path d="M917.187 347.324C918.291 350.074 920.479 351.78 922.079 351.135C923.669 350.49 924.064 347.739 922.97 344.988C921.866 342.238 919.679 340.533 918.078 341.177C916.478 341.822 916.083 344.574 917.187 347.324Z" fill="#F7A491"/>
<path d="M949.811 349.584C948.869 352.546 949.73 355.463 951.725 356.1C953.721 356.733 956.101 354.849 957.043 351.886C957.975 348.924 957.114 346.007 955.129 345.371C953.133 344.736 950.753 346.622 949.811 349.584Z" fill="#F7A491"/>
<path d="M901.061 498.472C908.212 497.815 931.832 495.418 931.832 495.418L973.745 489.782C973.745 489.782 981.149 507.479 981.443 518.579C981.949 538.001 964.072 554.369 948.778 553.43C939.682 552.874 888.178 551.743 878.12 548.014C876.044 532.192 873.653 515.047 862.988 503.658C880.065 501.314 891.378 499.358 901.061 498.472Z" fill="#466EB6"/>
<path d="M900.535 644.96C899.381 643.771 890.184 580.876 884.643 554.479C883.306 548.124 879.265 542.669 873.563 539.559L843.663 523.242C833.311 532.718 881.635 639.098 886.062 650.247C889.1 657.926 891.014 673.787 891.237 674.75C893.729 685.63 890.488 686.551 893.577 688.832C896.676 691.114 910.533 651.402 910.533 651.402C910.533 651.402 906.603 651.239 900.535 644.96Z" fill="#F7A491"/>
<path d="M909.54 501.209C909.54 502.79 908.092 504.079 906.289 504.084L855.503 504.205C853.711 504.205 851.908 502.651 851.32 500.724L852.242 501.342C852.242 499.756 853.7 498.472 855.493 498.467L906.279 498.347C908.071 498.342 909.54 499.622 909.54 501.209Z" fill="#355389"/>
<path d="M856.018 503.164C856.322 503.164 856.626 503.144 856.93 503.107C859.564 502.775 861.285 501.098 860.779 499.363L841.403 432.302C840.906 430.562 838.364 429.425 835.731 429.757C833.107 430.088 831.386 431.765 831.882 433.505L851.268 500.561C851.714 502.095 853.74 503.164 856.018 503.164Z" fill="#355389"/>
<path d="M870.98 494.076C873.887 492.623 878.384 491.962 878.263 491.569C877.766 489.977 864.852 498.207 866.392 495.624C867.243 494.186 876.845 486.881 879.377 487.37C881.828 487.844 897.872 490.414 897.872 490.414L939.167 475.487C939.167 475.487 947.047 449.806 945.639 428.693C954.643 428.86 960.933 430.355 969.127 433.749C967.75 454.254 962.513 487.849 953.256 495.116C949.346 498.174 898.581 498.361 898.581 498.361C898.581 498.361 887.449 498.864 885.565 498.375C884.137 498.006 880.379 496.424 878.404 496.103C873.897 495.375 866.513 500.015 866.392 499.161C866.301 498.542 868.012 495.561 870.98 494.076Z" fill="#F7A491"/>
<path d="M942.771 406.293C943.349 399.804 944.139 393.266 950.753 390.457C954.855 388.722 959.757 389.355 963.474 391.741C967.901 394.579 969.643 399.756 970.21 404.779C971.496 416.187 972.094 428.097 971.324 439.568C963.13 436.175 951.978 437.972 942.974 437.799C940.968 427.748 942.022 414.748 942.771 406.293Z" fill="#B75742"/>
<path d="M877.108 487.95C870.058 489.757 870.453 489.623 870.17 489.806C865.176 492.945 865.571 494.306 873.229 491.028C873.421 490.941 873.634 490.903 873.846 490.903L877.472 490.946C878.88 490.96 879.549 489.216 878.495 488.285C878.121 487.95 877.604 487.826 877.108 487.95Z" fill="#F7A491"/>
<path d="M890.932 672.43C890.932 672.43 891.226 677.415 889.555 681.417C887.873 685.415 881.472 686.92 883.012 688.986C884.561 691.046 896.949 688.986 896.949 688.986L911.271 653.948C911.858 652.644 911.534 651.12 910.46 650.18C908.739 648.671 905.578 646.527 900.605 645.036C900.605 645.036 901.375 667.014 890.932 672.43Z" fill="#F47458"/>
<path d="M652.287 412.769C661.035 410.248 661.27 411.81 662.381 411.456C663.691 411.04 674.273 396.707 674.273 396.707C674.273 396.707 705.764 354.701 707.375 352.366L717.307 298.01L747.144 297.774C747.144 297.774 734.682 356.473 733.459 359.383C732.242 362.288 682.336 413.594 678.108 418.262C678.108 418.262 675.376 425.846 673.492 430.537C671.608 435.23 667.573 438.657 666.825 439.879C666.715 440.061 663.963 443.964 659.156 447.764C655.014 451.043 657.205 445.943 657.205 445.943C657.205 445.943 663.614 438.422 662.861 437.977C662.286 437.631 659.055 441.959 654.516 445.636C653.351 446.58 652.197 447.51 651.127 448.354C648.318 450.569 645.941 449.389 648.448 446.58C649.335 445.588 650.854 443.978 652.12 443C653.486 441.936 654.339 440.498 655.33 439.424C657.296 437.286 658.758 435.758 658.614 435.714C658.428 435.661 658.484 434.942 657.21 435.905C655.676 437.061 653.054 440.277 650.648 441.796C649.281 442.654 646.559 444.634 646.559 444.634C646.559 444.634 641.794 446.825 641.541 446.585C640.165 445.276 642.897 442.847 644.934 441.926C645.85 440.666 648.783 438.667 648.783 438.667C648.783 438.667 653.644 433.241 652.795 432.488C652.432 432.163 649.004 435.105 645.122 437.431C641.517 439.587 637.452 441.159 636.829 440.489C635.779 439.352 639.475 436.515 639.475 436.515C639.475 436.515 642.188 434.67 643.032 433.988C644.024 433.188 646.78 430.547 646.78 430.547C646.78 430.547 655.892 420.885 655.025 420.232C654.162 419.576 651.339 418.694 650.537 419.082C649.742 419.466 648.74 420.961 647.94 421.35C647.139 421.737 645.687 421.546 645.021 420.578C644.359 419.614 647.327 416.23 647.327 416.23C647.327 416.23 649.766 413.498 652.287 412.769Z" fill="#F48C7F"/>
<path d="M701.824 685.458C701.824 685.458 702.888 704.213 702.893 704.252C703.281 706.629 704.82 712.515 704.82 714.677C704.82 722.811 668.641 707.774 676.746 704.171C677.484 703.844 681.328 701.38 681.568 698.61C681.942 694.349 682.882 685.721 682.882 685.721L701.824 685.458Z" fill="#F7A491"/>
<path d="M676.837 704.094C676.837 704.094 685.331 706.581 689.683 707.204C694.035 707.827 699.767 702.588 702.844 704.002C706.234 705.56 705.889 720.889 705.889 720.889C705.889 720.889 660.55 723.563 647.738 719.437C642.667 717.802 659.471 709.888 676.837 704.094Z" fill="#184655"/>
<path d="M781.535 687.256C781.535 687.256 782.598 706.011 782.603 706.05C782.992 708.432 784.531 714.313 784.531 716.479C784.531 724.609 748.352 709.577 756.457 705.973C757.195 705.647 762.18 701.338 762.42 698.572C762.794 694.305 762.597 687.519 762.597 687.519L781.535 687.256Z" fill="#F7A491"/>
<path d="M756.547 705.896C756.547 705.896 765.04 708.384 769.392 709.001C773.745 709.625 779.478 704.391 782.555 705.805C785.943 707.363 786.077 721.373 786.077 721.373C786.077 721.373 737.604 724.886 726.206 721.588C721.087 720.108 739.182 711.687 756.547 705.896Z" fill="#184655"/>
<path d="M724.204 416.537L708.904 423.132L676.727 576.792L678.036 691.986L703.828 692.586C703.828 692.586 715.825 591.818 715.825 584.01C715.825 576.203 771.392 447.357 771.392 447.357L724.204 416.537Z" fill="#355389"/>
<path d="M736.01 424.992C736.01 424.992 747.278 543.379 747.278 563.337C747.278 583.292 756.414 694.982 756.414 694.982L782.268 694.833C782.268 694.833 784.133 660.788 786.908 610.704C787.34 602.862 786.347 587.035 786.908 578.911C790.929 520.506 798.882 465.523 795.085 443.728C794.472 440.22 793.322 431.046 791.082 428.731C774.153 411.217 736.01 424.992 736.01 424.992Z" fill="#466EB6"/>
<path d="M704.471 331.558L735.755 329.463C735.755 329.463 737.299 301.497 737.299 288.158C737.299 271.973 742.231 248.112 740.304 248.561C734.892 249.82 725.546 254.802 721.209 260.845C706.196 281.755 704.471 331.558 704.471 331.558Z" fill="#3C8F7C"/>
<path d="M778.592 247.942C778.592 247.942 796.432 250.422 801.129 253.87C806.416 257.755 812.288 266.444 812.288 266.444C812.288 266.444 790.382 369.986 790.345 387.409C790.312 400.888 795.085 433.984 795.085 433.984C795.085 433.984 728.891 438.163 703.823 428.265C703.823 428.265 711.742 388.904 711.742 378.565C711.742 368.232 721.208 274.241 723.365 267.678C725.32 261.722 728.891 251.02 740.99 248.381C753.082 245.742 778.592 247.942 778.592 247.942Z" fill="#50BFA5"/>
<path d="M773.722 220.064L778.138 248.978C778.138 248.978 762.009 283.404 752.383 280.419C744.307 277.914 749.273 247.452 749.273 247.452C749.273 247.452 753.678 231.094 752.355 222.908C751.037 214.722 773.722 220.064 773.722 220.064Z" fill="#F7A491"/>
<path d="M752.354 222.908C751.036 214.722 773.721 220.064 773.721 220.064L774.086 222.463C773.425 224.067 772.61 225.44 771.627 226.492C766.56 231.91 758.638 235.163 751.793 235.409C752.478 230.994 752.895 226.264 752.354 222.908Z" fill="#F47458"/>
<path d="M777.441 179.161C778.083 178.929 782.58 212.09 774.048 221.215C765.511 230.339 748.879 233.326 742.911 226.139C736.316 218.191 736.646 182.55 749.919 173.164C763.191 163.777 777.441 179.161 777.441 179.161Z" fill="#F7A491"/>
<path d="M754.972 155.424C765.229 157.501 771.872 163.729 774.311 166.383C778.97 166.929 785.302 169.487 791.84 180.238C799.878 193.458 793.94 208.105 784.584 215.293C775.227 222.479 775.332 230.822 775.332 230.822L773.88 226.487C772.788 223.234 772.341 219.785 772.706 216.373C772.927 214.326 773.367 212.112 774.22 210.292C776.469 205.493 769.384 202.305 767.399 198.311C765.871 195.237 765.794 188.203 763.383 183.121L760.507 179.241C760.507 179.241 753.868 174.108 747.369 175.557C740.874 177.005 741.809 152.758 754.972 155.424Z" fill="#13375B"/>
<path d="M767.836 204.213C767.769 208.259 769.619 211.571 771.972 211.611C774.321 211.651 776.281 208.403 776.353 204.358C776.421 200.312 774.565 196.999 772.217 196.959C769.864 196.919 767.903 200.167 767.836 204.213Z" fill="#F7A491"/>
<path d="M733.095 353.262L732.668 355.731C732.448 357.001 731.239 357.854 729.969 357.634L678.807 348.772C677.537 348.552 676.684 347.344 676.904 346.074L677.331 343.606C677.551 342.335 678.759 341.484 680.029 341.703L731.197 350.564C732.467 350.785 733.315 351.992 733.095 353.262Z" fill="#13375B"/>
<path d="M805.625 261.274C799.623 261.1 794.313 300.694 798.118 304.601C801.925 308.507 802.649 357.274 802.649 357.274L746.022 355.866L746.017 355.884C744.91 355.146 733.046 347.177 731.35 345.436C729.572 343.609 720.924 344.522 718.638 347.034C716.347 349.546 723.724 347.491 725.757 348.86C727.789 350.231 724.232 353.655 724.232 353.655C724.232 353.655 709.881 355.741 707.083 352.769C704.288 349.801 696.811 344.777 695.794 347.745C695.271 349.277 699.125 353.919 701.297 355.866C698.588 353.838 695.343 351.683 694.227 352.058C692.194 352.745 693.043 355.333 694.145 356.09C695.248 356.852 706.641 365.552 708.419 366.16C710.154 366.755 736.656 367.412 741.233 368.423C741.233 368.423 815.912 385.429 820.153 384.37C823.881 383.436 827.608 359.536 827.608 341.225C827.608 322.917 824.387 261.817 805.625 261.274Z" fill="#F7A491"/>
<path d="M797.841 252.241C797.841 252.241 808.285 254.647 819.079 266.772C828.895 277.8 835.073 339.554 835.073 339.554L801.187 345.033L798.483 315.16L789.429 301.496L797.841 252.241Z" fill="#50BFA5"/>
<path d="M224.787 377.703H142.867C135.056 377.703 128.725 371.37 128.725 363.563V335.279C128.725 327.469 135.056 321.138 142.867 321.138H224.787C232.596 321.138 238.927 327.469 238.927 335.279V363.563C238.927 371.37 232.596 377.703 224.787 377.703Z" fill="#FAE0B2"/>
<path d="M163.834 369.899L198.724 425.213L184.313 369.899H163.834Z" fill="#FAE0B2"/>
<path d="M849.446 79.7544L846.104 71.8238L837.667 70.0907C836.705 69.8932 836.38 68.6798 837.13 68.0365L843.633 62.3969L842.68 53.8392C842.569 52.8647 843.622 52.1882 844.463 52.6946L851.837 57.1392L859.677 53.5839C860.568 53.1787 861.54 53.9738 861.317 54.929L859.373 63.3166L865.176 69.6765C865.835 70.4007 865.379 71.5685 864.407 71.6526L855.828 72.392L851.574 79.8781C851.087 80.7309 849.831 80.657 849.446 79.7544Z" fill="#9BC1F9"/>
<path d="M410.159 47.8217L407.499 41.5368L400.817 40.1623C400.055 40.0064 399.801 39.0452 400.391 38.5357L405.548 34.0649L404.786 27.2827C404.7 26.5099 405.539 25.9741 406.205 26.3751L412.048 29.898L418.265 27.0802C418.969 26.7591 419.74 27.389 419.563 28.1467L418.02 34.7941L422.621 39.8342C423.144 40.4085 422.784 41.3342 422.007 41.4012L415.211 41.9876L411.837 47.9199C411.453 48.5956 410.461 48.5378 410.159 47.8217Z" fill="#F7CC7F"/>
<path d="M945.547 52.7928L943.268 61.9837L928.075 59.9447L923.082 72.9734L911.454 73.3065L911.626 79.1894L927.164 78.7437L931.904 66.3977L947.704 68.5177L951.138 54.6859L945.547 52.7928Z" fill="#F48C7F"/>
<path d="M464.994 59.7817L462.706 68.9736L447.512 66.9347L442.518 79.9632L430.899 80.2965L431.067 86.1792L446.611 85.7336L451.342 73.3866L467.15 75.5077L470.587 61.6768L464.994 59.7817Z" fill="#466EB6"/>
<path d="M574.201 32.0686L565.626 36.0968L557.621 23.0206L544.363 27.3638L536.776 18.559L532.318 22.4008L542.465 34.1785L555.033 30.062L563.359 43.665L576.258 37.604L574.201 32.0686Z" fill="#F48C7F"/>
<path d="M847.005 21.3759L833.129 25.1672L830.131 8.33834L834.678 7.53101L836.785 19.3837L845.79 16.9234L847.005 21.3759Z" fill="#50BFA5"/>
<path d="M528.771 102.157L488.729 102.275C485.598 102.284 483.058 99.7568 483.049 96.6301L534.417 96.4802C534.427 99.607 531.896 102.148 528.771 102.157Z" fill="#FAE0B2"/>
<path d="M530.142 86.5872C527.3 86.5953 524.899 84.9889 524.894 83.0786C524.889 81.1694 527.281 79.5487 530.123 79.5406C532.961 79.5326 535.367 81.139 535.372 83.0482C535.377 84.9585 532.98 86.5781 530.142 86.5872ZM530.114 76.6509C525.632 76.663 521.994 79.5508 522.004 83.0877C522.013 86.6237 525.665 89.4902 530.152 89.477C534.634 89.4638 538.271 86.576 538.262 83.0402C538.252 79.5032 534.596 76.6377 530.114 76.6509Z" fill="#FAE0B2"/>
<path d="M528.56 70.9651C528.608 87.0789 519.347 100.168 507.868 100.202C496.394 100.235 487.056 87.2004 487.008 71.0856C487.003 69.0416 496.297 67.3552 507.772 67.3218C519.247 67.2884 528.555 68.9191 528.56 70.9651Z" fill="#FAE0B2"/>
<path d="M528.56 70.9651C528.565 73.0101 519.27 74.6955 507.796 74.729C496.322 74.7624 487.017 73.1317 487.008 71.0856C487.003 69.0416 496.297 67.3552 507.772 67.3218C519.247 67.2884 528.555 68.9191 528.56 70.9651Z" fill="#F7CC7F"/>
</svg>
