<svg width="173" height="53" viewBox="0 0 173 53" fill="none" xmlns="http://www.w3.org/2000/svg">
<g clip-path="url(#clip0_1021_984)">
<path d="M52.4222 26.4987C52.4222 21.2571 50.8848 16.1332 48.0044 11.775C45.1241 7.41685 41.0301 4.02011 36.2402 2.01436C31.4504 0.00861628 26.1798 -0.516041 21.095 0.506743C16.0102 1.52953 11.3396 4.05381 7.67382 7.76037C4.00805 11.4669 1.51177 16.1893 0.500659 21.3302C-0.510447 26.4712 0.00903645 31.7998 1.99341 36.6422C3.97779 41.4847 7.33793 45.6234 11.6489 48.5351C15.9599 51.4468 21.028 53.0006 26.2125 53.0001C33.2837 53.0001 38.666 50.5666 43.469 46.3101C43.5928 46.1912 43.7531 46.1188 43.9233 46.1047C44.0935 46.0907 44.2634 46.136 44.4046 46.2331L51.1902 51.771C51.3079 51.8533 51.4455 51.9017 51.5883 51.911C51.7312 51.9203 51.8738 51.8901 52.001 51.8237C52.1281 51.7573 52.235 51.6572 52.3102 51.5341C52.3853 51.411 52.426 51.2695 52.4277 51.1248C52.425 47.7014 52.4222 29.8093 52.4222 26.4987ZM26.0956 40.9427C22.3066 40.9007 18.6891 39.34 16.0375 36.6034C13.3859 33.8669 11.9169 30.1782 11.9531 26.3475C11.9694 24.5437 12.0891 12.929 12.0891 12.929C12.0815 12.8466 12.0987 12.7638 12.1383 12.6914C12.1778 12.619 12.2381 12.5602 12.3111 12.5229C12.3842 12.4855 12.4666 12.4712 12.5478 12.4819C12.629 12.4925 12.7051 12.5276 12.7663 12.5826L16.4352 15.6402C16.5117 15.6932 16.6037 15.7182 16.6962 15.7112C16.7886 15.7042 16.8759 15.6656 16.9438 15.6017C19.5873 13.3113 22.5273 12.0272 26.3866 12.0574C28.2735 12.0602 30.1412 12.441 31.8818 13.1776C33.6224 13.9142 35.2014 14.9922 36.5277 16.3492C37.854 17.7062 38.9012 19.3154 39.6089 21.0839C40.3167 22.8523 40.6709 24.745 40.6511 26.6527C40.6314 28.5603 40.238 30.4451 39.4938 32.1982C38.7496 33.9513 37.6693 35.538 36.3152 36.8666C34.9611 38.1952 33.3601 39.2395 31.6046 39.9391C29.8491 40.6388 27.974 40.9799 26.0874 40.9427H26.0956Z" fill="url(#paint0_linear_1021_984)"/>
<path d="M72.8062 32.6523V36.6889H70.4102C68.704 36.6889 67.3741 36.2663 66.4204 35.4213C65.4667 34.5762 64.9889 33.2014 64.9871 31.2967V25.1072H63.116V21.1559H64.9871V17.3696H69.7058V21.1559H72.7899V25.1072H69.7058V31.3435C69.6888 31.5245 69.7096 31.7071 69.7667 31.8795C69.8239 32.0519 69.9162 32.2103 70.0376 32.3444C70.3548 32.5804 70.7469 32.6901 71.1391 32.6523H72.8062Z" fill="white"/>
<path d="M74.5659 24.6922C75.1074 23.55 75.9556 22.5848 77.0137 21.9067C78.0451 21.257 79.2389 20.9192 80.4541 20.9334C81.4445 20.9111 82.4246 21.1409 83.3043 21.6015C84.0766 22.0052 84.7274 22.6111 85.1891 23.3558V21.1561H89.886V36.689H85.1782V34.4892C84.7033 35.2297 84.0476 35.8339 83.2744 36.2435C82.3938 36.7043 81.4128 36.934 80.4215 36.9117C79.2129 36.9231 78.0271 36.5792 77.0082 35.9218C75.9486 35.2348 75.1006 34.2613 74.5605 33.1117C73.9411 31.7954 73.6347 30.351 73.6657 28.8937C73.6353 27.4411 73.9437 26.0017 74.5659 24.6922ZM84.2018 26.111C83.8945 25.7862 83.5254 25.5274 83.1167 25.3502C82.7081 25.173 82.2683 25.081 81.8236 25.0797C81.379 25.0784 80.9387 25.1679 80.529 25.3427C80.1194 25.5176 79.7489 25.7742 79.4397 26.0972C78.7869 26.7737 78.4606 27.7058 78.4606 28.8937C78.4606 30.0815 78.7869 31.0237 79.4397 31.7203C79.7404 32.0549 80.1082 32.3208 80.5185 32.5005C80.9288 32.6802 81.3723 32.7695 81.8194 32.7625C82.2656 32.7694 82.7083 32.6814 83.1187 32.5042C83.5291 32.3271 83.8982 32.0647 84.2018 31.7341C84.8528 31.0467 85.1782 30.109 85.1782 28.9212C85.1782 27.7333 84.8528 26.7966 84.2018 26.111Z" fill="#0692C8"/>
<path d="M97.1829 16.0911V36.6889H92.4751V16.0911H97.1829Z" fill="#0692C8"/>
<path d="M104.477 16.0911V36.6889H99.7695V16.0911H104.477Z" fill="#0692C8"/>
<path d="M116.455 36.6889L111.774 30.1749V36.6889H107.074V16.0911H111.782V27.4747L116.433 21.1505H122.242L115.856 28.943L122.305 36.6889H116.455Z" fill="white"/>
<path d="M123.434 36.172C123.18 35.9434 122.979 35.6621 122.843 35.3474C122.708 35.0327 122.641 34.6921 122.648 34.349C122.64 33.9996 122.706 33.6526 122.842 33.3311C122.977 33.0096 123.179 32.7211 123.434 32.4847C123.983 31.9735 124.711 31.7035 125.457 31.734C126.194 31.7075 126.912 31.9774 127.453 32.4847C127.706 32.722 127.907 33.0108 128.042 33.3321C128.177 33.6534 128.243 33.9999 128.237 34.349C128.243 34.6919 128.176 35.0322 128.041 35.3467C127.906 35.6613 127.706 35.9428 127.453 36.172C126.909 36.6726 126.192 36.9381 125.457 36.9117C124.713 36.9419 123.987 36.6764 123.434 36.172Z" fill="white"/>
<path d="M154.351 22.7426C155.481 23.9121 156.044 25.5363 156.043 27.615V36.689H151.362V28.253C151.362 27.2521 151.101 26.4776 150.579 25.9295C149.981 25.3995 149.213 25.1073 148.418 25.1073C147.623 25.1073 146.855 25.3995 146.257 25.9295C145.731 26.4794 145.469 27.2539 145.471 28.253V36.689H140.799V28.253C140.799 27.2521 140.538 26.4776 140.015 25.9295C139.417 25.3993 138.649 25.107 137.853 25.107C137.058 25.107 136.289 25.3993 135.691 25.9295C135.169 26.4794 134.908 27.2539 134.908 28.253V36.689H130.192V21.1561H134.9V23.1056C135.389 22.4438 136.032 21.9132 136.771 21.5603C137.588 21.1696 138.483 20.974 139.387 20.9883C140.466 20.9689 141.533 21.2282 142.485 21.7417C143.384 22.234 144.125 22.9776 144.617 23.8837C145.163 23.0191 145.91 22.3026 146.793 21.7967C147.7 21.2611 148.734 20.9819 149.785 20.9883C151.699 20.9883 153.221 21.5731 154.351 22.7426Z" fill="white"/>
<path d="M172.919 30.0622H162.265C162.339 31.0273 162.646 31.767 163.187 32.2757C163.727 32.7866 164.444 33.0621 165.184 33.0428C166.359 33.0428 167.175 32.5415 167.631 31.5388H172.641C172.383 32.5666 171.897 33.5216 171.22 34.3315C170.543 35.1413 169.692 35.7848 168.733 36.2132C167.667 36.6902 166.512 36.9285 165.347 36.9116C163.947 36.9346 162.564 36.5948 161.33 35.9245C160.164 35.2862 159.207 34.3195 158.575 33.1418C157.892 31.8403 157.551 30.3831 157.585 28.9101C157.551 27.4396 157.887 25.9846 158.561 24.6811C159.188 23.5047 160.141 22.5387 161.303 21.9011C162.543 21.2659 163.914 20.9326 165.304 20.9278C166.695 20.923 168.067 21.2469 169.312 21.8736C170.457 22.4909 171.401 23.4283 172.032 24.5738C172.704 25.8287 173.04 27.2389 173.008 28.6653C173.006 29.1324 172.976 29.5988 172.919 30.0622ZM168.184 27.4197C168.2 27.0538 168.136 26.6888 167.994 26.3514C167.853 26.014 167.639 25.713 167.368 25.4702C166.791 24.9795 166.054 24.7219 165.301 24.7471C164.574 24.7243 163.865 24.9718 163.307 25.4427C162.74 25.9519 162.381 26.657 162.301 27.4197H168.184Z" fill="white"/>
</g>
<defs>
<linearGradient id="paint0_linear_1021_984" x1="19.9137" y1="-10.1792" x2="32.7655" y2="63.0439" gradientUnits="userSpaceOnUse">
<stop stop-color="#74CBF1"/>
<stop offset="0.17" stop-color="#69C5ED"/>
<stop offset="0.47" stop-color="#4AB5E1"/>
<stop offset="0.86" stop-color="#199CCF"/>
<stop offset="1" stop-color="#0692C8"/>
</linearGradient>
<clipPath id="clip0_1021_984">
<rect width="173" height="53" fill="white"/>
</clipPath>
</defs>
</svg>
