<svg width="174" height="54" viewBox="0 0 174 54" fill="none" xmlns="http://www.w3.org/2000/svg">
<path d="M52.4249 26.5014C52.4249 21.2598 50.8875 16.1359 48.0071 11.7777C45.1268 7.41953 41.0328 4.02279 36.2429 2.01705C31.4531 0.0113018 26.1825 -0.513355 21.0977 0.509429C16.0129 1.53221 11.3423 4.0565 7.6765 7.76306C4.01073 11.4696 1.51445 16.192 0.503345 21.3329C-0.507761 26.4739 0.011722 31.8025 1.9961 36.6449C3.98047 41.4874 7.34061 45.6261 11.6516 48.5378C15.9626 51.4495 21.0307 53.0033 26.2152 53.0027C33.2864 53.0027 38.6687 50.5693 43.4717 46.3128C43.5955 46.1939 43.7558 46.1214 43.926 46.1074C44.0962 46.0934 44.266 46.1387 44.4073 46.2358L51.1929 51.7736C51.3106 51.856 51.4482 51.9044 51.591 51.9137C51.7338 51.923 51.8765 51.8928 52.0036 51.8264C52.1308 51.76 52.2377 51.6599 52.3129 51.5368C52.388 51.4136 52.4286 51.2722 52.4304 51.1275C52.4276 47.7041 52.4249 29.812 52.4249 26.5014ZM26.0982 40.9454C22.3093 40.9033 18.6918 39.3427 16.0402 36.6061C13.3885 33.8695 11.9195 30.1809 11.9558 26.3501C11.9721 24.5464 12.0918 12.9317 12.0918 12.9317C12.0842 12.8493 12.1013 12.7665 12.1409 12.6941C12.1805 12.6216 12.2408 12.5629 12.3138 12.5256C12.3868 12.4882 12.4693 12.4739 12.5505 12.4845C12.6317 12.4952 12.7078 12.5303 12.769 12.5853L16.4379 15.6429C16.5144 15.6959 16.6064 15.7209 16.6988 15.7139C16.7913 15.7069 16.8786 15.6683 16.9465 15.6044C19.59 13.3139 22.53 12.0298 26.3892 12.0601C28.2762 12.0629 30.1439 12.4436 31.8845 13.1803C33.6251 13.9169 35.2041 14.9949 36.5304 16.3519C37.8566 17.7089 38.9039 19.3181 39.6116 21.0866C40.3194 22.855 40.6736 24.7477 40.6538 26.6554C40.6341 28.563 40.2407 30.4478 39.4965 32.2009C38.7523 33.954 37.672 35.5406 36.3179 36.8693C34.9638 38.1979 33.3628 39.2422 31.6073 39.9418C29.8518 40.6414 27.9767 40.9825 26.0901 40.9454H26.0982Z" fill="url(#paint0_linear_1428_1716)"/>
<path d="M72.8094 30.6553V34.6918H70.4134C68.7072 34.6918 67.3773 34.2693 66.4236 33.4242C65.4699 32.5791 64.9921 31.2043 64.9903 29.2997V23.1101H63.1191V19.1589H64.9903V15.3726H69.709V19.1589H72.7931V23.1101H69.709V29.3464C69.692 29.5274 69.7128 29.71 69.7699 29.8824C69.8271 30.0548 69.9193 30.2132 70.0408 30.3473C70.358 30.5834 70.7501 30.693 71.1422 30.6553H72.8094Z" fill="#9B9B9B"/>
<path d="M74.5694 22.6948C75.1108 21.5527 75.959 20.5875 77.0171 19.9094C78.0485 19.2596 79.2423 18.9219 80.4575 18.936C81.448 18.9138 82.4281 19.1436 83.3078 19.6042C84.08 20.0079 84.7309 20.6138 85.1925 21.3585V19.1588H89.8894V34.6917H85.1816V32.4919C84.7067 33.2324 84.051 33.8366 83.2778 34.2462C82.3972 34.707 81.4162 34.9367 80.4249 34.9144C79.2163 34.9258 78.0305 34.5819 77.0117 33.9245C75.952 33.2375 75.104 32.264 74.5639 31.1143C73.9445 29.7981 73.6381 28.3536 73.6691 26.8963C73.6387 25.4438 73.9471 24.0044 74.5694 22.6948V22.6948ZM84.2053 24.1137C83.8979 23.7889 83.5288 23.5301 83.1202 23.3529C82.7115 23.1757 82.2717 23.0837 81.8271 23.0824C81.3824 23.0811 80.9421 23.1706 80.5324 23.3454C80.1228 23.5203 79.7523 23.7769 79.4431 24.0999C78.7903 24.7763 78.464 25.7085 78.464 26.8963C78.464 28.0842 78.7903 29.0264 79.4431 29.723C79.7438 30.0576 80.1116 30.3235 80.5219 30.5032C80.9322 30.6829 81.3757 30.7722 81.8228 30.7651C82.269 30.7721 82.7117 30.6841 83.1221 30.5069C83.5326 30.3298 83.9016 30.0674 84.2053 29.7368C84.8562 29.0493 85.1816 28.1117 85.1816 26.9238C85.1816 25.736 84.8562 24.7993 84.2053 24.1137V24.1137Z" fill="#0692C8"/>
<path d="M97.1863 14.0942V34.6921H92.4785V14.0942H97.1863Z" fill="#0692C8"/>
<path d="M104.48 14.0942V34.6921H99.7725V14.0942H104.48Z" fill="#0692C8"/>
<path d="M116.457 34.6921L111.777 28.1781V34.6921H107.077V14.0942H111.785V25.4779L116.436 19.1536H122.245L115.859 26.9462L122.307 34.6921H116.457Z" fill="#9B9B9B"/>
<path d="M123.436 34.1747C123.183 33.946 122.981 33.6648 122.846 33.3501C122.71 33.0354 122.643 32.6948 122.65 32.3516C122.642 32.0023 122.709 31.6553 122.844 31.3338C122.98 31.0123 123.181 30.7238 123.436 30.4874C123.986 29.9762 124.713 29.7062 125.459 29.7367C126.197 29.7102 126.915 29.9801 127.456 30.4874C127.709 30.7247 127.91 31.0135 128.045 31.3348C128.18 31.6561 128.246 32.0026 128.239 32.3516C128.245 32.6945 128.179 33.0348 128.044 33.3494C127.909 33.664 127.708 33.9454 127.456 34.1747C126.911 34.6753 126.195 34.9408 125.459 34.9143C124.715 34.9445 123.989 34.679 123.436 34.1747V34.1747Z" fill="#9B9B9B"/>
<path d="M154.354 20.7455C155.484 21.9151 156.048 23.5392 156.046 25.618V34.6919H151.365V26.2559C151.365 25.255 151.104 24.4805 150.582 23.9324C149.984 23.4024 149.216 23.1102 148.421 23.1102C147.626 23.1102 146.858 23.4024 146.261 23.9324C145.735 24.4824 145.473 25.2568 145.475 26.2559V34.6919H140.802V26.2559C140.802 25.255 140.541 24.4805 140.019 23.9324C139.421 23.4022 138.652 23.1099 137.857 23.1099C137.061 23.1099 136.293 23.4022 135.695 23.9324C135.172 24.4824 134.911 25.2568 134.911 26.2559V34.6919H130.195V19.159H134.903V21.1085C135.393 20.4467 136.035 19.9161 136.774 19.5632C137.592 19.1726 138.487 18.9769 139.391 18.9913C140.47 18.9718 141.536 19.2311 142.488 19.7447C143.388 20.237 144.128 20.9806 144.621 21.8867C145.167 21.0221 145.914 20.3056 146.796 19.7997C147.704 19.264 148.737 18.9848 149.788 18.9913C151.703 18.9913 153.225 19.576 154.354 20.7455Z" fill="#9B9B9B"/>
<path d="M172.921 28.0651H162.268C162.341 29.0302 162.649 29.7699 163.19 30.2786C163.73 30.7895 164.447 31.0651 165.186 31.0458C166.361 31.0458 167.177 30.5444 167.634 29.5417H172.644C172.386 30.5695 171.9 31.5245 171.222 32.3344C170.545 33.1443 169.695 33.7878 168.735 34.2161C167.67 34.6932 166.515 34.9314 165.349 34.9146C163.949 34.9375 162.566 34.5977 161.332 33.9274C160.167 33.2891 159.21 32.3224 158.577 31.1447C157.894 29.8432 157.553 28.386 157.587 26.913C157.554 25.4425 157.89 23.9875 158.564 22.684C159.191 21.5076 160.143 20.5416 161.305 19.9041C162.546 19.2688 163.916 18.9355 165.307 18.9307C166.697 18.9259 168.07 19.2498 169.315 19.8766C170.459 20.4938 171.403 21.4312 172.034 22.5768C172.706 23.8316 173.043 25.2418 173.011 26.6683C173.008 27.1353 172.978 27.6017 172.921 28.0651V28.0651ZM168.186 25.4227C168.203 25.0567 168.138 24.6917 167.997 24.3543C167.856 24.017 167.641 23.7159 167.37 23.4732C166.793 22.9824 166.057 22.7248 165.303 22.75C164.577 22.7272 163.867 22.9748 163.31 23.4457C162.742 23.9548 162.383 24.6599 162.303 25.4227H168.186Z" fill="#9B9B9B"/>
<path d="M109.919 42.8975V42.7744C109.919 42.3096 109.985 41.8818 110.118 41.4912C110.251 41.0967 110.444 40.7549 110.698 40.4658C110.952 40.1768 111.263 39.9521 111.63 39.792C111.997 39.6279 112.415 39.5459 112.884 39.5459C113.36 39.5459 113.782 39.6279 114.149 39.792C114.521 39.9521 114.833 40.1768 115.087 40.4658C115.341 40.7549 115.534 41.0967 115.667 41.4912C115.8 41.8818 115.866 42.3096 115.866 42.7744V42.8975C115.866 43.3584 115.8 43.7861 115.667 44.1807C115.534 44.5713 115.341 44.9131 115.087 45.2061C114.833 45.4951 114.522 45.7197 114.155 45.8799C113.788 46.04 113.368 46.1201 112.896 46.1201C112.427 46.1201 112.007 46.04 111.636 45.8799C111.265 45.7197 110.952 45.4951 110.698 45.2061C110.444 44.9131 110.251 44.5713 110.118 44.1807C109.985 43.7861 109.919 43.3584 109.919 42.8975ZM111.466 42.7744V42.8975C111.466 43.1748 111.493 43.4346 111.548 43.6768C111.603 43.9189 111.687 44.1318 111.8 44.3154C111.913 44.499 112.06 44.6436 112.239 44.749C112.423 44.8506 112.642 44.9014 112.896 44.9014C113.146 44.9014 113.36 44.8506 113.54 44.749C113.72 44.6436 113.866 44.499 113.979 44.3154C114.097 44.1318 114.183 43.9189 114.237 43.6768C114.292 43.4346 114.319 43.1748 114.319 42.8975V42.7744C114.319 42.501 114.292 42.2451 114.237 42.0068C114.183 41.7646 114.097 41.5518 113.979 41.3682C113.866 41.1807 113.718 41.0342 113.534 40.9287C113.354 40.8193 113.138 40.7646 112.884 40.7646C112.634 40.7646 112.419 40.8193 112.239 40.9287C112.06 41.0342 111.913 41.1807 111.8 41.3682C111.687 41.5518 111.603 41.7646 111.548 42.0068C111.493 42.2451 111.466 42.501 111.466 42.7744ZM118.538 40.8818V48.4404H116.985V39.6631H118.421L118.538 40.8818ZM122.61 42.7686V42.8916C122.61 43.3525 122.556 43.7803 122.446 44.1748C122.341 44.5654 122.185 44.9072 121.978 45.2002C121.771 45.4893 121.513 45.7158 121.204 45.8799C120.899 46.04 120.548 46.1201 120.149 46.1201C119.759 46.1201 119.419 46.0459 119.13 45.8975C118.841 45.7451 118.597 45.5303 118.397 45.2529C118.198 44.9756 118.038 44.6533 117.917 44.2861C117.8 43.915 117.712 43.5107 117.653 43.0732V42.6807C117.712 42.2158 117.8 41.7939 117.917 41.415C118.038 41.0322 118.198 40.7021 118.397 40.4248C118.597 40.1436 118.839 39.9268 119.124 39.7744C119.413 39.6221 119.751 39.5459 120.138 39.5459C120.54 39.5459 120.894 39.6221 121.198 39.7744C121.507 39.9268 121.767 40.1455 121.978 40.4307C122.188 40.7158 122.347 41.0557 122.452 41.4502C122.558 41.8447 122.61 42.2842 122.61 42.7686ZM121.058 42.8916V42.7686C121.058 42.4873 121.032 42.2275 120.981 41.9893C120.931 41.7471 120.853 41.5361 120.747 41.3564C120.642 41.1729 120.505 41.0303 120.337 40.9287C120.169 40.8271 119.966 40.7764 119.728 40.7764C119.489 40.7764 119.284 40.8154 119.112 40.8936C118.94 40.9717 118.8 41.083 118.69 41.2275C118.581 41.3721 118.495 41.5439 118.433 41.7432C118.374 41.9385 118.335 42.1553 118.315 42.3936V43.3662C118.351 43.6553 118.419 43.915 118.521 44.1455C118.622 44.376 118.771 44.5596 118.966 44.6963C119.165 44.833 119.423 44.9014 119.739 44.9014C119.978 44.9014 120.181 44.8486 120.349 44.7432C120.517 44.6377 120.653 44.4932 120.759 44.3096C120.864 44.1221 120.94 43.9072 120.987 43.665C121.034 43.4229 121.058 43.165 121.058 42.8916ZM126.589 46.1201C126.108 46.1201 125.677 46.042 125.294 45.8857C124.911 45.7295 124.585 45.5127 124.315 45.2354C124.05 44.9541 123.845 44.6279 123.7 44.2568C123.56 43.8818 123.489 43.4795 123.489 43.0498V42.8154C123.489 42.3271 123.56 41.8838 123.7 41.4854C123.841 41.083 124.04 40.7373 124.298 40.4482C124.556 40.1592 124.864 39.9365 125.224 39.7803C125.583 39.624 125.979 39.5459 126.413 39.5459C126.862 39.5459 127.259 39.6221 127.603 39.7744C127.946 39.9229 128.233 40.1338 128.464 40.4072C128.694 40.6807 128.868 41.0088 128.985 41.3916C129.103 41.7705 129.161 42.1904 129.161 42.6514V43.3018H124.192V42.2354H127.638V42.1182C127.63 41.8721 127.583 41.6475 127.497 41.4443C127.411 41.2373 127.278 41.0732 127.099 40.9521C126.919 40.8271 126.687 40.7646 126.401 40.7646C126.171 40.7646 125.97 40.8154 125.798 40.917C125.63 41.0146 125.489 41.1553 125.376 41.3389C125.267 41.5186 125.185 41.7334 125.13 41.9834C125.075 42.2334 125.048 42.5107 125.048 42.8154V43.0498C125.048 43.3154 125.083 43.5615 125.153 43.7881C125.228 44.0146 125.335 44.2119 125.476 44.3799C125.62 44.5439 125.792 44.6729 125.991 44.7666C126.194 44.8564 126.425 44.9014 126.683 44.9014C127.007 44.9014 127.3 44.8389 127.562 44.7139C127.827 44.585 128.058 44.3955 128.253 44.1455L129.032 44.9541C128.899 45.1494 128.72 45.3369 128.493 45.5166C128.271 45.6963 128.001 45.8428 127.685 45.9561C127.368 46.0654 127.003 46.1201 126.589 46.1201ZM131.745 40.958V46.0029H130.198V39.6631H131.663L131.745 40.958ZM133.673 39.6221L133.649 41.0635C133.563 41.0479 133.466 41.0361 133.356 41.0283C133.251 41.0205 133.151 41.0166 133.058 41.0166C132.819 41.0166 132.61 41.0498 132.431 41.1162C132.251 41.1787 132.101 41.2705 131.979 41.3916C131.862 41.5127 131.772 41.6611 131.71 41.8369C131.647 42.0088 131.612 42.2041 131.604 42.4229L131.271 42.3818C131.271 41.9795 131.312 41.6064 131.394 41.2627C131.476 40.9189 131.595 40.6182 131.751 40.3604C131.907 40.1025 132.103 39.9033 132.337 39.7627C132.575 39.6182 132.849 39.5459 133.157 39.5459C133.243 39.5459 133.335 39.5537 133.433 39.5693C133.534 39.5811 133.614 39.5986 133.673 39.6221ZM137.815 44.6553V41.7314C137.815 41.5166 137.778 41.3311 137.704 41.1748C137.63 41.0186 137.517 40.8975 137.364 40.8115C137.212 40.7256 137.019 40.6826 136.784 40.6826C136.577 40.6826 136.396 40.7178 136.239 40.7881C136.087 40.8584 135.97 40.958 135.888 41.0869C135.806 41.2119 135.765 41.3564 135.765 41.5205H134.212C134.212 41.2588 134.274 41.0107 134.399 40.7764C134.524 40.5381 134.702 40.3271 134.933 40.1436C135.167 39.9561 135.446 39.8096 135.771 39.7041C136.099 39.5986 136.466 39.5459 136.872 39.5459C137.353 39.5459 137.78 39.6279 138.155 39.792C138.534 39.9521 138.831 40.1943 139.046 40.5186C139.265 40.8428 139.374 41.251 139.374 41.7432V44.5088C139.374 44.8252 139.394 45.0967 139.433 45.3232C139.476 45.5459 139.538 45.7393 139.62 45.9033V46.0029H138.044C137.97 45.8428 137.913 45.6396 137.874 45.3936C137.835 45.1436 137.815 44.8975 137.815 44.6553ZM138.032 42.1416L138.044 43.0615H137.065C136.823 43.0615 136.61 43.0869 136.427 43.1377C136.243 43.1846 136.093 43.2549 135.976 43.3486C135.858 43.4385 135.771 43.5479 135.712 43.6768C135.653 43.8018 135.624 43.9443 135.624 44.1045C135.624 44.2607 135.659 44.4014 135.729 44.5264C135.804 44.6514 135.909 44.751 136.046 44.8252C136.187 44.8955 136.351 44.9307 136.538 44.9307C136.812 44.9307 137.05 44.876 137.253 44.7666C137.456 44.6533 137.614 44.5166 137.728 44.3564C137.841 44.1963 137.901 44.0439 137.909 43.8994L138.354 44.5674C138.3 44.7275 138.218 44.8975 138.108 45.0771C137.999 45.2568 137.858 45.4248 137.687 45.5811C137.515 45.7373 137.308 45.8662 137.065 45.9678C136.823 46.0693 136.542 46.1201 136.222 46.1201C135.812 46.1201 135.444 46.0381 135.12 45.874C134.796 45.71 134.54 45.4854 134.353 45.2002C134.165 44.915 134.071 44.5908 134.071 44.2275C134.071 43.8916 134.134 43.5947 134.259 43.3369C134.384 43.0791 134.569 42.8623 134.815 42.6865C135.062 42.5068 135.366 42.3721 135.729 42.2822C136.097 42.1885 136.517 42.1416 136.989 42.1416H138.032ZM143.37 44.9014C143.589 44.9014 143.784 44.8584 143.956 44.7725C144.128 44.6865 144.265 44.5654 144.366 44.4092C144.472 44.2529 144.528 44.0713 144.536 43.8643H145.995C145.987 44.2939 145.866 44.6787 145.632 45.0186C145.397 45.3584 145.085 45.6279 144.694 45.8271C144.308 46.0225 143.874 46.1201 143.394 46.1201C142.905 46.1201 142.479 46.0381 142.116 45.874C141.753 45.71 141.45 45.4814 141.208 45.1885C140.97 44.8955 140.79 44.5557 140.669 44.1689C140.552 43.7822 140.493 43.3682 140.493 42.9268V42.7393C140.493 42.2979 140.552 41.8838 140.669 41.4971C140.79 41.1104 140.97 40.7705 141.208 40.4775C141.45 40.1846 141.753 39.9561 142.116 39.792C142.479 39.6279 142.903 39.5459 143.388 39.5459C143.899 39.5459 144.349 39.6455 144.735 39.8447C145.126 40.0439 145.431 40.3252 145.649 40.6885C145.872 41.0518 145.987 41.4795 145.995 41.9717H144.536C144.528 41.7451 144.478 41.542 144.384 41.3623C144.29 41.1826 144.157 41.0381 143.985 40.9287C143.813 40.8193 143.604 40.7646 143.358 40.7646C143.097 40.7646 142.878 40.8193 142.702 40.9287C142.53 41.0381 142.396 41.1885 142.298 41.3799C142.204 41.5674 142.138 41.7783 142.099 42.0127C142.063 42.2432 142.046 42.4854 142.046 42.7393V42.9268C142.046 43.1846 142.063 43.4307 142.099 43.665C142.138 43.8994 142.204 44.1104 142.298 44.2979C142.396 44.4814 142.53 44.6279 142.702 44.7373C142.878 44.8467 143.101 44.9014 143.37 44.9014ZM148.667 39.6631V46.0029H147.114V39.6631H148.667ZM147.009 38.0049C147.009 37.7744 147.087 37.583 147.243 37.4307C147.403 37.2783 147.618 37.2021 147.888 37.2021C148.157 37.2021 148.37 37.2783 148.526 37.4307C148.687 37.583 148.767 37.7744 148.767 38.0049C148.767 38.2314 148.687 38.4209 148.526 38.5732C148.37 38.7256 148.157 38.8018 147.888 38.8018C147.618 38.8018 147.403 38.7256 147.243 38.5732C147.087 38.4209 147.009 38.2314 147.009 38.0049ZM149.868 42.8975V42.7744C149.868 42.3096 149.935 41.8818 150.067 41.4912C150.2 41.0967 150.394 40.7549 150.647 40.4658C150.901 40.1768 151.212 39.9521 151.579 39.792C151.946 39.6279 152.364 39.5459 152.833 39.5459C153.31 39.5459 153.731 39.6279 154.099 39.792C154.47 39.9521 154.782 40.1768 155.036 40.4658C155.29 40.7549 155.483 41.0967 155.616 41.4912C155.749 41.8818 155.815 42.3096 155.815 42.7744V42.8975C155.815 43.3584 155.749 43.7861 155.616 44.1807C155.483 44.5713 155.29 44.9131 155.036 45.2061C154.782 45.4951 154.472 45.7197 154.104 45.8799C153.737 46.04 153.317 46.1201 152.845 46.1201C152.376 46.1201 151.956 46.04 151.585 45.8799C151.214 45.7197 150.901 45.4951 150.647 45.2061C150.394 44.9131 150.2 44.5713 150.067 44.1807C149.935 43.7861 149.868 43.3584 149.868 42.8975ZM151.415 42.7744V42.8975C151.415 43.1748 151.442 43.4346 151.497 43.6768C151.552 43.9189 151.636 44.1318 151.749 44.3154C151.862 44.499 152.009 44.6436 152.188 44.749C152.372 44.8506 152.591 44.9014 152.845 44.9014C153.095 44.9014 153.31 44.8506 153.489 44.749C153.669 44.6436 153.815 44.499 153.929 44.3154C154.046 44.1318 154.132 43.9189 154.187 43.6768C154.241 43.4346 154.269 43.1748 154.269 42.8975V42.7744C154.269 42.501 154.241 42.2451 154.187 42.0068C154.132 41.7646 154.046 41.5518 153.929 41.3682C153.815 41.1807 153.667 41.0342 153.483 40.9287C153.304 40.8193 153.087 40.7646 152.833 40.7646C152.583 40.7646 152.368 40.8193 152.188 40.9287C152.009 41.0342 151.862 41.1807 151.749 41.3682C151.636 41.5518 151.552 41.7646 151.497 42.0068C151.442 42.2451 151.415 42.501 151.415 42.7744ZM158.458 41.0166V46.0029H156.911V39.6631H158.364L158.458 41.0166ZM158.212 42.6045H157.755C157.759 42.1436 157.821 41.7256 157.942 41.3506C158.063 40.9756 158.233 40.6533 158.452 40.3838C158.675 40.1143 158.938 39.9072 159.243 39.7627C159.548 39.6182 159.888 39.5459 160.263 39.5459C160.567 39.5459 160.843 39.5889 161.089 39.6748C161.335 39.7607 161.546 39.8975 161.722 40.085C161.901 40.2725 162.038 40.5186 162.132 40.8232C162.229 41.124 162.278 41.4951 162.278 41.9365V46.0029H160.72V41.9248C160.72 41.6357 160.677 41.4072 160.591 41.2393C160.509 41.0713 160.388 40.9521 160.228 40.8818C160.071 40.8115 159.878 40.7764 159.647 40.7764C159.409 40.7764 159.2 40.8252 159.021 40.9229C158.845 41.0166 158.696 41.1475 158.575 41.3154C158.458 41.4834 158.368 41.6768 158.306 41.8955C158.243 42.1143 158.212 42.3506 158.212 42.6045ZM167.136 44.6553V41.7314C167.136 41.5166 167.099 41.3311 167.024 41.1748C166.95 41.0186 166.837 40.8975 166.685 40.8115C166.532 40.7256 166.339 40.6826 166.104 40.6826C165.897 40.6826 165.716 40.7178 165.56 40.7881C165.407 40.8584 165.29 40.958 165.208 41.0869C165.126 41.2119 165.085 41.3564 165.085 41.5205H163.532C163.532 41.2588 163.595 41.0107 163.72 40.7764C163.845 40.5381 164.022 40.3271 164.253 40.1436C164.487 39.9561 164.767 39.8096 165.091 39.7041C165.419 39.5986 165.786 39.5459 166.192 39.5459C166.673 39.5459 167.101 39.6279 167.476 39.792C167.854 39.9521 168.151 40.1943 168.366 40.5186C168.585 40.8428 168.694 41.251 168.694 41.7432V44.5088C168.694 44.8252 168.714 45.0967 168.753 45.3232C168.796 45.5459 168.858 45.7393 168.94 45.9033V46.0029H167.364C167.29 45.8428 167.233 45.6396 167.194 45.3936C167.155 45.1436 167.136 44.8975 167.136 44.6553ZM167.353 42.1416L167.364 43.0615H166.386C166.144 43.0615 165.931 43.0869 165.747 43.1377C165.563 43.1846 165.413 43.2549 165.296 43.3486C165.179 43.4385 165.091 43.5479 165.032 43.6768C164.974 43.8018 164.944 43.9443 164.944 44.1045C164.944 44.2607 164.979 44.4014 165.05 44.5264C165.124 44.6514 165.229 44.751 165.366 44.8252C165.507 44.8955 165.671 44.9307 165.858 44.9307C166.132 44.9307 166.37 44.876 166.573 44.7666C166.776 44.6533 166.935 44.5166 167.048 44.3564C167.161 44.1963 167.222 44.0439 167.229 43.8994L167.675 44.5674C167.62 44.7275 167.538 44.8975 167.429 45.0771C167.319 45.2568 167.179 45.4248 167.007 45.5811C166.835 45.7373 166.628 45.8662 166.386 45.9678C166.144 46.0693 165.862 46.1201 165.542 46.1201C165.132 46.1201 164.765 46.0381 164.44 45.874C164.116 45.71 163.86 45.4854 163.673 45.2002C163.485 44.915 163.392 44.5908 163.392 44.2275C163.392 43.8916 163.454 43.5947 163.579 43.3369C163.704 43.0791 163.89 42.8623 164.136 42.6865C164.382 42.5068 164.687 42.3721 165.05 42.2822C165.417 42.1885 165.837 42.1416 166.31 42.1416H167.353ZM171.729 37.0029V46.0029H170.177V37.0029H171.729Z" fill="#9B9B9B"/>
<defs>
<linearGradient id="paint0_linear_1428_1716" x1="19.9164" y1="-10.1765" x2="32.7682" y2="63.0466" gradientUnits="userSpaceOnUse">
<stop stop-color="#74CBF1"/>
<stop offset="0.17" stop-color="#69C5ED"/>
<stop offset="0.47" stop-color="#4AB5E1"/>
<stop offset="0.86" stop-color="#199CCF"/>
<stop offset="1" stop-color="#0692C8"/>
</linearGradient>
</defs>
</svg>
